<mxfile host="app.diagrams.net" modified="2024-03-07T12:17:38.694Z" agent="Mozilla/5.0 (Windows NT 10.0; Win64; x64) AppleWebKit/537.36 (KHTML, like Gecko) Chrome/122.0.0.0 Safari/537.36" version="24.0.2" etag="svQR56UDLXPP3n_gFzvS" type="github">
  <diagram name="Pagina-1" id="3sDQiM75IX4NaqyRdGJa">
    <mxGraphModel>
      <root>
        <mxCell id="0" />
        <mxCell id="1" parent="0" />
      </root>
    </mxGraphModel>
  </diagram>
</mxfile>
